<svg xmlns="http://www.w3.org/2000/svg" viewBox="0 0 268.1 267.05"><defs><style>.cls-1,.cls-2,.cls-3,.cls-4,.cls-5{fill:none;stroke:#20396e;stroke-miterlimit:10;stroke-width:14.78px;}.cls-1{opacity:0.9;}.cls-2{opacity:0.6;}.cls-3{opacity:0.7;}.cls-5{opacity:0.8;}</style></defs><title>logo-symbolAsset 3</title><g id="Layer_2" data-name="Layer 2"><g id="Layer_1-2" data-name="Layer 1"><path class="cls-1" d="M192,75.28a39.75,39.75,0,0,1-4.31-51.16A40.26,40.26,0,0,1,192,19a39.79,39.79,0,1,1,56.29,56.24,40.73,40.73,0,0,1-4.78,4.09A39.86,39.86,0,0,1,192,75.28Z"/><path class="cls-2" d="M192.76,248a40.73,40.73,0,0,1-4.09-4.78A39.79,39.79,0,0,1,244,187.48a41.1,41.1,0,0,1,5.1,4.29A39.79,39.79,0,0,1,192.76,248Z"/><path class="cls-3" d="M19.05,248a39.73,39.73,0,0,1,0-56.24,40.3,40.3,0,0,1,5.09-4.29,39.79,39.79,0,0,1,55.3,55.75,40.82,40.82,0,0,1-4.1,4.78A39.83,39.83,0,0,1,19.05,248Z"/><path class="cls-4" d="M24.14,187.48a122.28,122.28,0,0,1,.5-108.11A39.79,39.79,0,0,0,80.45,24.12a122.6,122.6,0,0,1,107.2,0,39.8,39.8,0,0,0,55.82,55.25A122.25,122.25,0,0,1,244,187.48a39.79,39.79,0,0,0-55.29,55.75,122.57,122.57,0,0,1-109.23,0,39.79,39.79,0,0,0-55.3-55.75Z"/><path class="cls-5" d="M19.85,75.28A39.79,39.79,0,0,1,76.15,19a40.17,40.17,0,0,1,4.3,5.08,39.79,39.79,0,0,1-60.6,51.16Z"/></g></g></svg>