<?xml version="1.0" encoding="utf-8"?>
<!-- Generator: Adobe Illustrator 23.0.6, SVG Export Plug-In . SVG Version: 6.00 Build 0)  -->
<svg version="1.1" id="Layer_1" xmlns="http://www.w3.org/2000/svg" xmlns:xlink="http://www.w3.org/1999/xlink" x="0px" y="0px"
	 viewBox="0 0 813.4 764.7" style="enable-background:new 0 0 813.4 764.7;" xml:space="preserve">
<style type="text/css">
	.st0{fill:#625088;}
	.st1{fill:#FCEA10;}
	.st2{fill:#FBBC10;}
	.st3{fill:url(#SVGID_1_);}
	.st4{fill:url(#SVGID_2_);}
	.st5{fill:url(#SVGID_3_);}
	.st6{fill:#7F6DAF;}
	.st7{fill:#FDD29A;}
	.st8{fill:#FFFFFF;}
	.st9{fill:url(#SVGID_4_);}
	.st10{fill:#6D4529;}
</style>
<g id="Laag_2">
	<rect class="st0" width="813.4" height="764.7"/>
</g>
<g id="Laag_1">
	
		<rect x="251.8" y="338.1" transform="matrix(0.5398 -0.8418 0.8418 0.5398 -201.5959 476.1234)" class="st1" width="165.6" height="168.6"/>
	
		<rect x="340.2" y="193.9" transform="matrix(0.5398 -0.8418 0.8418 0.5398 -38.1051 486.5606)" class="st2" width="171.5" height="168.4"/>
	
		<linearGradient id="SVGID_1_" gradientUnits="userSpaceOnUse" x1="202.2207" y1="145.2449" x2="383.9706" y2="145.2449" gradientTransform="matrix(0.9936 -1.5456 -0.2856 -0.1836 130.0466 832.4316)">
		<stop  offset="0" style="stop-color:#FCEA10"/>
		<stop  offset="2.000000e-02" style="stop-color:#FCE811"/>
		<stop  offset="0.42" style="stop-color:#FACB24"/>
		<stop  offset="0.76" style="stop-color:#F9B82F"/>
		<stop  offset="1" style="stop-color:#F9B233"/>
	</linearGradient>
	<polygon class="st3" points="217.2,446.7 397.3,166.6 541.9,259.6 361.8,539.7 	"/>
	
		<linearGradient id="SVGID_2_" gradientUnits="userSpaceOnUse" x1="205.5348" y1="-2889.5383" x2="387.4442" y2="-2889.5383" gradientTransform="matrix(1.03 -1.52 9.000000e-02 6.000000e-02 391.29 1007.17)">
		<stop  offset="0" style="stop-color:#E2CD00"/>
		<stop  offset="0.24" style="stop-color:#E4C700"/>
		<stop  offset="0.54" style="stop-color:#E8B700"/>
		<stop  offset="0.89" style="stop-color:#F09D00"/>
		<stop  offset="1" style="stop-color:#F39200"/>
	</linearGradient>
	<path class="st4" d="M540.6,259.4c-13,6.6-25.6,14.1-37.7,22.3c-56.8,39-63.7,86-119.2,142.2c-24.1,24.4-45.5,51.4-63.7,80.5
		l47.3,32.2l178.9-282.2L540.6,259.4z"/>
	
		<linearGradient id="SVGID_3_" gradientUnits="userSpaceOnUse" x1="202.7451" y1="1286.4036" x2="384.6262" y2="1286.4036" gradientTransform="matrix(0.95 -1.55 -8.000000e-02 -5.000000e-02 150.2 839.18)">
		<stop  offset="0" style="stop-color:#E2CD00"/>
		<stop  offset="0.24" style="stop-color:#E4C700"/>
		<stop  offset="0.54" style="stop-color:#E8B700"/>
		<stop  offset="0.89" style="stop-color:#F09D00"/>
		<stop  offset="1" style="stop-color:#F39200"/>
	</linearGradient>
	<path class="st5" d="M397.3,175.7c-1.3,14.1-3.5,28.2-6.5,42.1c-14.4,65.8-52,92.3-81.3,164.5c-12.8,31.4-28.7,61.5-47.3,89.9
		l-43.1-26.3l180.5-277.1L397.3,175.7z"/>
	<path class="st6" d="M362.5,223.3c12.7-20,25.4-40,38.1-60.1l149,91.6L362.5,223.3z"/>
	<path d="M254.8,594.6h19.4c11.4,0,22.7-0.4,34,0.3c2.9,0.2,7.6,3.3,8.1,5.7c1.1,5.6-4,6.3-8.3,6.4c-27.7,0-55.4,0-83.1,0
		c-6.6,0-9.6-3-9.5-9.6c0.6-53.5,1-106.9,1.7-160.4c0.2-3.6,1.3-7,3.3-10c33.7-53.2,56-92.2,91-147c0.5-0.9,18.3-27.5,53.7-80.8
		c2.6-4,23.7-35.8,26.4-39.8c3.1-2.2,7.2-2.5,10.6-0.7l150.5,92.4c-6.7,11.3-24.1,40.5-41.9,69.2c-27.4,44.1-25.5,40-39,61.4
		c-30.1,47.8-60.1,95.6-90.6,143.2c-3.5,5.2-8.3,9.4-13.9,12.2c-42.9,21.2-73,21.3-106.1,51.4C258,591.2,255.7,593.6,254.8,594.6z
		 M400.6,163.3c-34.1,53.1-162.9,253.8-168,267.6c-0.8,2.2-1.2,4.5-1.4,6.8c2.5,7,5.5,13.8,8.9,20.4c0.8,1.5,4.2,2.4,6.4,2.3
		c7.2-0.2,14.4-0.9,21.5-1.6c6.4-0.7,10.6,1.3,12.6,7.8c2,6.3,5.1,12.3,6.9,18.7c1.6,5.8,4.9,7.2,10.4,6.5
		c6.9-0.9,13.8-1.1,20.7-1.7c5.8-0.5,9.3,1.8,11.3,7.4c2.4,6.5,5.3,12.7,8.3,19c0.8,2,2.2,3.7,3.9,4.9c1.9,1.3,10,3.7,20-0.8
		c4.5-2.1,8.5-5,11.7-8.7c0.2-0.3,0.5-0.5,0.6-0.7c35.4-54.2,53.1-81.4,53.2-81.5l0,0l119.2-177.9
		C523.1,240.5,421.1,178.7,400.6,163.3z M228.8,474.7c0,15.4,1.4,31.5-0.4,47.4c-1.9,17.4,4.1,27.2,19.1,36.3s26.6,12.8,42.4,2.5
		c13.5-8.8,29-14.5,43-21.2c-2.7-5.9-5.4-10.8-7.4-16.1c-7.8-19.7-7.7-19.7-28.5-18.3c-1.9,0.1-3.9,0-5.8,0.3
		c-7.1,1.2-11.6-1.1-13.5-8.5c-1.2-4.8-3.9-9.2-5-14c-2.2-8.8-6.7-11.9-16-10.2C248.1,474.4,239.3,474.1,228.8,474.7z"/>
	<path d="M434.8,607c-15.1,0-30.2,0.5-45.2-0.3c-5-0.2-9.5-3.6-14.2-5.5c4.8-2.2,9.4-6.1,14.3-6.2c29.6-0.6,59.2-0.6,88.9,0
		c4.6,0.1,8.9,3.8,13.4,5.9c-4.5,2-8.7,5.6-13.5,5.9C464,607.5,449.4,607,434.8,607z"/>
	<path d="M340.8,606.8c-7.5-0.7-25,2.7-24.5-6.4c0.5-8.3,17.1-5.2,27.6-5.7c5.7-0.3,12.4-0.8,17.1,0.3c5.2,1.2,8.8,4,13,6.2
		c-4.2,1.9-7.8,4.5-12.8,5.5S349.9,606.8,340.8,606.8z"/>
	<path class="st7" d="M228.8,474.7c10.5-0.6,19.4-0.2,27.9-1.8c9.3-1.7,13.8,1.4,16,10.2c1.2,4.8,3.8,9.2,5,14
		c1.9,7.4,6.4,9.8,13.5,8.5c1.9-0.3,3.9-0.2,5.8-0.3c20.8-1.4,20.7-1.4,28.5,18.3c2,5.2,4.7,10.2,7.4,16.1
		c-14,6.8-29.5,12.4-43,21.2c-15.8,10.2-27.4,6.7-42.4-2.5s-21-19-19.1-36.3C230.1,506.2,228.8,490.1,228.8,474.7z"/>
	<path class="st8" d="M541.3,249.6c5.7-3.8,20.6,2.8,24.4,12.6c1.7,4.3,1.5,9.9,4.7,19.6c2.6,7.8,4.6,8,13.6,24.5
		c7.7,14.2,8,17.3,7,20c-2,5.6-8.7,8.7-13.8,9.2c-8.6,0.9-14.9-5-18.2-8.2c-3.8-3.7-6.7-8.2-8.4-13.2c-2-5.8-1.1-8.4-1.9-14.7
		c-1.4-11.8-5.6-12.9-8.4-25.1C539,268.7,535.5,253.5,541.3,249.6z"/>
	<path class="st8" d="M588.9,349.8c-4.3-1.6-10.8,3.1-13.5,8.4c-4.5,8.6,1.2,18.2,2.5,20.5c1.2,2,6.4,10.9,12.1,9.9
		s7.7-11.2,7.8-11.6c0.8-4.5-0.6-8.6-3.3-16.6C592.3,353.9,591.1,350.6,588.9,349.8z"/>
	<path class="st8" d="M372.4,208.1c10.4,8.2,19.5,9.5,23.9,9.8c2.3,0.2,4.6,0.1,6.9-0.2c7.2-1.3,11.3-5.9,22.8-7.4
		c9.1-1.2,17.9,1.3,34.9,6.5c17.1,5.2,20.6,8.8,38.5,14.7c9.9,3.2,13.1,3.3,19.1,4.8l0,0c1.7,0.5,4,1.1,6.7,2
		c16.5,5.3,35,14.6,34.1,17.6c-0.7,2.3-12.5,0.6-18.9-0.3c-45.9-6.7-151.5-24.1-179.9-28.9L372.4,208.1z"/>
	
		<linearGradient id="SVGID_4_" gradientUnits="userSpaceOnUse" x1="510.4905" y1="19.3865" x2="510.4905" y2="19.3865" gradientTransform="matrix(1 0 0 -1 -3.24 460.67)">
		<stop  offset="0" style="stop-color:#DEDC00"/>
		<stop  offset="0.21" style="stop-color:#E0D600"/>
		<stop  offset="0.47" style="stop-color:#E4C600"/>
		<stop  offset="0.77" style="stop-color:#ECAC00"/>
		<stop  offset="1" style="stop-color:#F39200"/>
	</linearGradient>
	<path class="st9" d="M507.3,441.3"/>
	<path class="st10" d="M284.7,449.3c-2-1.1,43.4-77.6,52.6-92c1.8-2.8,3.5-5.2,3.9-5c0.8,0.4-2.9,9-3.8,10.9
		c-5.6,13-11,20.9-21.2,37.2c-10.4,16.5-10.8,17.9-19.3,31C289,443.4,285,449.4,284.7,449.3z"/>
	<path class="st10" d="M328.6,479.3c-2-1.1,43.4-77.6,52.6-92c1.8-2.8,3.5-5.2,3.9-5c0.8,0.4-2.9,9-3.8,10.9
		c-5.6,13-11,20.9-21.2,37.2c-10.4,16.5-10.8,17.9-19.3,31C332.9,473.4,328.9,479.5,328.6,479.3z"/>
</g>
</svg>
